<svg width="283" height="251" viewBox="0 0 283 251" fill="none" xmlns="http://www.w3.org/2000/svg">
<g filter="url(#filter0_n_2551_3)">
<path d="M102.443 106H97.417V111H110.491C110.032 112.106 109.83 113.301 109.83 114.5C109.83 115.948 110.141 117.405 110.925 118.724C111.536 119.751 112.342 120.539 113.228 121.133C110.901 121.308 108.748 121.48 106.756 121.634C102.008 122.001 98.2676 122.248 95.0879 122.187C91.9406 122.126 89.5416 121.762 87.4756 121.011C85.4469 120.273 83.5391 119.088 81.4873 117.116L79.6582 115.358L79.417 115L91.292 91.7529C95.639 90.4411 99.3239 88.8583 102.443 86.9775V106Z" fill="url(#paint0_linear_2551_3)"/>
<path d="M180.443 87.3047C183.727 89.2073 187.617 90.7943 192.219 92.0967L204.093 114.392L201.259 117.116C199.205 119.09 197.295 120.276 195.264 121.014C193.195 121.765 190.791 122.128 187.638 122.188C184.452 122.248 180.703 121.999 175.945 121.631C173.943 121.476 171.779 121.304 169.439 121.128C170.322 120.534 171.126 119.748 171.735 118.724C172.519 117.405 172.83 115.948 172.83 114.5C172.83 113.301 172.628 112.106 172.169 111H185.417V106H180.443V87.3047Z" fill="url(#paint1_linear_2551_3)"/>
<path d="M154.967 111.396C153.754 113.599 152.767 116.579 151.762 120.156C148.516 120.058 145.046 120 141.33 120C137.614 120.001 134.143 120.06 130.897 120.159C129.892 116.581 128.907 113.601 127.694 111.398C127.621 111.265 127.543 111.132 127.465 111H155.195C155.118 111.132 155.04 111.263 154.967 111.396Z" fill="url(#paint2_linear_2551_3)"/>
<path d="M175.417 60.0195C174.577 59.3485 173.756 58.6457 172.96 57.9082L161.757 47.5254L164.652 62.5234C165.071 64.6913 165.562 66.8631 166.211 69C166.705 70.6262 167.291 72.2317 168.007 73.7998C168.03 73.8496 168.052 73.8995 168.075 73.9492C168.308 74.4516 168.553 74.9504 168.813 75.4443C168.816 75.4499 168.819 75.4554 168.822 75.4609C168.935 75.6744 169.052 75.886 169.171 76.0977C169.218 76.1816 169.265 76.2659 169.312 76.3496C169.58 76.8161 169.861 77.2782 170.157 77.7354C170.722 78.6055 171.342 79.4581 172.025 80.2891C172.084 80.3603 172.144 80.431 172.203 80.502C172.468 80.8175 172.741 81.1304 173.025 81.4395C173.432 81.8823 173.857 82.313 174.297 82.7344C174.667 83.0891 175.049 83.4375 175.443 83.7773V106H107.443V105H107.417V83.3115C107.529 83.2106 107.638 83.108 107.748 83.0059C107.827 82.9326 107.906 82.86 107.983 82.7861C108.152 82.6255 108.318 82.4625 108.481 82.2988C108.764 82.0164 109.04 81.7304 109.309 81.4385C109.592 81.1296 109.865 80.8163 110.13 80.501C110.189 80.43 110.249 80.3593 110.308 80.2881C110.992 79.4568 111.612 78.604 112.177 77.7334C112.487 77.2556 112.78 76.7723 113.058 76.2842C113.079 76.2465 113.1 76.2086 113.121 76.1709C113.255 75.934 113.386 75.6971 113.513 75.458C113.515 75.4534 113.516 75.448 113.519 75.4434C113.788 74.9333 114.041 74.4185 114.28 73.8994C114.287 73.8854 114.293 73.8715 114.3 73.8574C115.028 72.2709 115.623 70.6462 116.123 69C116.772 66.8628 117.263 64.6907 117.682 62.5225L120.577 47.5244L109.374 57.9072C108.737 58.4974 108.083 59.0638 107.417 59.6113V0H175.417V60.0195Z" fill="url(#paint3_linear_2551_3)"/>
<path d="M44.4102 51.626C56.5384 39.861 76.25 38.3362 102.417 43.0654V52.2129C98.7118 54.4328 95.2982 57.473 92.5488 61.5058C85.3684 72.0383 82.5935 73.6363 64.917 73.4531C72.7122 78.6958 96.8504 76.3295 112.772 61.5742C110.306 74.3476 105.823 83.7768 83.8535 88.499C82.8672 94.9242 68.6976 118.042 53.2256 116.68C52.3545 119.075 79.9159 128.501 67.417 144C72.6308 146.329 77.2889 148.571 81.2432 150.999C82.3287 151.88 83.4795 152.702 84.54 153.459C85.7027 154.289 86.8222 155.087 87.8838 155.918C91.0982 158.896 93.392 162.293 94.5801 166.449C94.6058 166.79 94.6211 167.141 94.6211 167.5C94.6212 175.095 98.7027 180.338 102.48 183.772C104.361 185.482 106.277 186.844 107.657 187.835C108.384 188.357 108.901 188.732 109.281 189.041C109.416 189.151 109.502 189.227 109.55 189.271C109.561 189.29 109.573 189.309 109.585 189.328C107.418 189.05 105.148 188.905 102.761 189.073C98.3103 189.388 94.2578 190.711 91.8135 194.075C89.9472 196.644 89.5123 199.738 89.793 202.882C89.3771 202.69 88.9785 202.475 88.6016 202.234C85.8393 200.631 80.8667 197.053 74.3574 190.544C72.5981 204.867 59.8183 214.416 38.2441 225.938C41.9416 229.325 48.2592 238.898 43.9521 250.098C28.0498 234.339 26.6135 231.107 36.1621 209.066C45.7111 187.026 66.3165 179.415 71.4141 178.697C73.6568 178.381 75.6494 178.177 78.6484 178.612C76.2034 176.091 73.4967 173.217 71.1162 170.325C67.1608 168.029 63.146 166.003 59.917 165C59.8042 164.965 59.6938 164.927 59.585 164.89C49.8078 172.703 34.4414 176.696 13.7793 177.73C15.1401 182.557 14.8288 203.925 5.27051 211.18C0.0460773 189.41 -3.33579 175.028 16.3857 161.315C28.8168 152.672 44.4145 148.858 55.4277 147.738C53.0661 146.894 49.9631 144.364 46.708 140.789C38.9017 139.432 30.0529 135.693 20.0977 129.818C18.899 133.581 9.42829 147.491 0 148.114C6.00623 131.539 10.0195 120.62 28.9287 120.159C30.4021 120.123 31.8438 120.156 33.251 120.249C28.8027 110.542 26.7923 100.467 30.917 94C32.9169 96.4998 34.9171 98.9996 37.1387 99.541C32.9525 87.264 29.553 66.0388 44.4102 51.626Z" fill="url(#paint4_linear_2551_3)"/>
<path d="M180.417 42.9756C206.335 38.3559 225.873 39.9368 237.924 51.6269C252.781 66.04 249.382 87.2652 245.195 99.542C247.417 99.0007 249.417 96.5007 251.417 94.0009C255.541 100.468 253.531 110.543 249.083 120.25C250.49 120.157 251.932 120.124 253.405 120.16C272.315 120.621 276.328 131.54 282.334 148.115C272.906 147.492 263.436 133.583 262.236 129.819C252.281 135.694 243.432 139.433 235.626 140.79C232.371 144.365 229.268 146.895 226.906 147.739C237.92 148.859 253.517 152.673 265.948 161.316C285.669 175.029 282.288 189.41 277.063 211.181C267.505 203.926 267.194 182.559 268.555 177.731C247.893 176.697 232.526 172.704 222.749 164.891C222.64 164.928 222.53 164.966 222.417 165.001C219.188 166.004 215.173 168.03 211.218 170.326C208.837 173.218 206.13 176.092 203.686 178.613C206.685 178.178 208.677 178.382 210.92 178.698C216.018 179.416 236.623 187.026 246.172 209.067C255.72 231.108 254.284 234.34 238.382 250.099C234.075 238.899 240.392 229.326 244.09 225.939C222.516 214.417 209.736 204.867 207.977 190.545C201.467 197.054 196.495 200.632 193.732 202.235C193.488 202.392 193.232 202.536 192.971 202.672C193.214 199.601 192.757 196.588 190.933 194.076C188.488 190.712 184.436 189.389 179.985 189.074C177.598 188.905 175.328 189.05 173.161 189.328C173.173 189.31 173.185 189.291 173.196 189.272C173.244 189.228 173.33 189.152 173.466 189.042C173.846 188.733 174.363 188.358 175.09 187.836C176.47 186.845 178.386 185.482 180.267 183.772C184.044 180.338 188.125 175.095 188.125 167.501C188.125 166.276 188.278 165.16 188.562 164.132C189.463 161.956 190.702 159.999 192.245 158.2C192.533 157.914 192.831 157.631 193.141 157.353C194.686 155.967 196.394 154.753 198.206 153.46C199.59 152.472 201.125 151.372 202.471 150.176C206.115 148.06 210.298 146.065 214.917 144.001C202.419 128.503 229.974 119.077 229.108 116.681C213.637 118.043 199.468 94.9262 198.48 88.5C176.511 83.7779 172.028 74.3482 169.562 61.5752C185.483 76.3299 209.621 78.6964 217.417 73.4541C199.741 73.6373 196.965 72.0387 189.785 61.5068C187.16 57.656 183.929 54.7094 180.417 52.5185V42.9756Z" fill="url(#paint5_linear_2551_3)"/>
<path d="M163.33 110C166.907 110 168.83 111.5 168.83 114.5C168.83 118 165.872 119 161.33 119C160.853 120.904 159.802 122.862 158.752 124.447C185.201 125.799 194.441 129.216 204.03 120C210.997 132.5 205.523 141.5 200.547 146.5C195.571 151.5 184.125 155.5 184.125 167.5C184.125 179.5 171.402 184.5 169.901 187C168.256 189.741 165.113 192.955 161.929 195.367C168.285 194.454 173.711 192.64 179.703 193.063C187.634 193.624 190.113 197.547 188.626 204.833C201.514 215.482 200.027 223.329 193.583 228.934C187.139 234.538 173.259 240.704 164.336 230.615C157.198 222.545 171.607 220.153 179.703 219.966C182.479 215.93 183.173 210.438 183.173 208.196C174.25 204.834 171.771 209.317 164.336 204.833C160.61 202.586 158.245 200.223 156.877 198.402C155.948 198.783 155.103 199 154.395 199H128.35C127.642 199 126.798 198.783 125.868 198.402C124.499 200.222 122.135 202.587 118.41 204.833C110.975 209.317 108.496 204.833 99.5731 208.196C99.5732 210.438 100.267 215.931 103.043 219.966C111.139 220.153 125.548 222.544 118.41 230.615C109.487 240.704 95.6072 234.538 89.163 228.934C82.7193 223.329 81.2322 215.482 94.12 204.833C92.633 197.547 95.1121 193.624 103.043 193.063C109.034 192.64 114.461 194.454 120.816 195.367C117.632 192.956 114.49 189.741 112.846 187C111.345 184.5 98.621 179.5 98.621 167.5C98.621 155.5 87.1753 151.5 82.1991 146.5C77.2231 141.5 71.7494 132.5 78.7157 120C88.2945 129.206 97.5255 125.805 123.91 124.451C122.859 122.865 121.807 120.905 121.33 119C116.788 119 113.83 118 113.83 114.5C113.83 111.5 115.753 110 119.33 110C123.594 110 125.179 114.118 127.872 124.27C131.959 124.106 136.427 124.001 141.33 124C146.232 124 150.701 124.104 154.788 124.266C157.48 114.117 159.066 110 163.33 110Z" fill="url(#paint6_linear_2551_3)"/>
</g>
<defs>
<filter id="filter0_n_2551_3" x="0" y="0" width="282.334" height="250.099" filterUnits="userSpaceOnUse" color-interpolation-filters="sRGB">
<feFlood flood-opacity="0" result="BackgroundImageFix"/>
<feBlend mode="normal" in="SourceGraphic" in2="BackgroundImageFix" result="shape"/>
<feTurbulence type="fractalNoise" baseFrequency="1 1" stitchTiles="stitch" numOctaves="3" result="noise" seed="946" />
<feColorMatrix in="noise" type="luminanceToAlpha" result="alphaNoise" />
<feComponentTransfer in="alphaNoise" result="coloredNoise1">
<feFuncA type="discrete" tableValues="0 0 1 1 1 1 1 1 1 1 1 1 1 1 1 1 1 1 1 1 1 1 1 1 1 1 1 1 1 1 1 1 1 1 1 1 1 1 1 1 1 1 1 1 1 1 1 1 0 0 0 0 0 0 0 0 0 0 0 0 0 0 0 0 0 0 0 0 0 0 0 0 0 0 0 0 0 0 0 0 0 0 0 0 0 0 0 0 0 0 0 0 0 0 0 0 0 0 0 0 "/>
</feComponentTransfer>
<feComposite operator="in" in2="shape" in="coloredNoise1" result="noise1Clipped" />
<feFlood flood-color="rgba(255, 255, 255, 0.05)" result="color1Flood" />
<feComposite operator="in" in2="noise1Clipped" in="color1Flood" result="color1" />
<feMerge result="effect1_noise_2551_3">
<feMergeNode in="shape" />
<feMergeNode in="color1" />
</feMerge>
</filter>
<linearGradient id="paint0_linear_2551_3" x1="80.4663" y1="107.304" x2="108.43" y2="83.1204" gradientUnits="userSpaceOnUse">
<stop stop-color="#5B88C1"/>
<stop offset="1" stop-color="#5465D1"/>
</linearGradient>
<linearGradient id="paint1_linear_2551_3" x1="170.515" y1="107.443" x2="198.339" y2="82.5488" gradientUnits="userSpaceOnUse">
<stop stop-color="#5B88C1"/>
<stop offset="1" stop-color="#5465D1"/>
</linearGradient>
<linearGradient id="paint2_linear_2551_3" x1="128.325" y1="116.286" x2="133.076" y2="103.33" gradientUnits="userSpaceOnUse">
<stop stop-color="#5B88C1"/>
<stop offset="1" stop-color="#5465D1"/>
</linearGradient>
<linearGradient id="paint3_linear_2551_3" x1="109.528" y1="61.1791" x2="183.236" y2="18.5669" gradientUnits="userSpaceOnUse">
<stop stop-color="#5B88C1"/>
<stop offset="1" stop-color="#5465D1"/>
</linearGradient>
<linearGradient id="paint4_linear_2551_3" x1="3.5" y1="161.5" x2="135.5" y2="97.5" gradientUnits="userSpaceOnUse">
<stop stop-color="#5B88C1"/>
<stop offset="1" stop-color="#5465D1"/>
</linearGradient>
<linearGradient id="paint5_linear_2551_3" x1="173.062" y1="161.501" x2="305.062" y2="97.5008" gradientUnits="userSpaceOnUse">
<stop stop-color="#5B88C1"/>
<stop offset="1" stop-color="#5465D1"/>
</linearGradient>
<linearGradient id="paint6_linear_2551_3" x1="79.5099" y1="182.722" x2="180.438" y2="87.5338" gradientUnits="userSpaceOnUse">
<stop stop-color="#5B88C1"/>
<stop offset="1" stop-color="#5465D1"/>
</linearGradient>
</defs>
</svg>
